<svg xmlns="http://www.w3.org/2000/svg" viewBox="0 0 640 420" role="img" aria-label="보물 상자와 보석, 행운의 식물 일러스트"><defs><linearGradient id="l" x1="0" y1="0" x2="1" y2="1"><stop stop-color="#172247"/><stop offset="1" stop-color="#74502f"/></linearGradient><linearGradient id="g" x1="0" y1="0" x2="0" y2="1"><stop stop-color="#e9c27d"/><stop offset="1" stop-color="#8b5b2d"/></linearGradient></defs><rect width="640" height="420" rx="28" fill="url(#l)"/><g fill="#8dc86a" opacity=".8"><path d="M90 350c-16-67 10-116 62-140 2 60-16 104-62 140z"/><path d="M96 344c50-58 83-70 126-68-24 47-67 69-126 68z"/><path d="M514 352c-9-54 14-100 53-121 2 55-16 92-53 121z"/></g><g transform="translate(178 138)"><path fill="#51321f" d="M0 96h278v125H0z"/><path fill="url(#g)" d="M0 96h278v55H0z"/><path fill="#6d4325" d="M14 58h250l14 39H0z"/><path fill="#8c5a2d" d="M20 42h238l6 22H14z"/><rect x="122" y="89" width="34" height="132" rx="8" fill="#e5b85d"/><circle cx="139" cy="128" r="7" fill="#fff0a8"/><path fill="#4f2e73" d="M139 13 177 75l-38 64-38-64z"/><path fill="#f1c9ff" d="M139 27 164 76l-25 42-25-42z"/><path fill="#fff3ff" d="m139 28 8 48-8 42-9-42z" opacity=".75"/></g><g fill="#b9f08a"><circle cx="480" cy="86" r="7"/><circle cx="510" cy="104" r="5"/><circle cx="539" cy="84" r="6"/></g><g fill="none" stroke="#e7c27b" stroke-width="3"><path d="M467 112q22-27 43 0"/><path d="M495 130q20-25 39 0"/></g></svg>