<svg xmlns="http://www.w3.org/2000/svg" viewBox="0 0 640 420" role="img" aria-label="꽃과 나비 사이에서 생각하는 인물 일러스트"><defs><linearGradient id="p" x1="0" y1="0" x2="1" y2="1"><stop stop-color="#5b36a2"/><stop offset="1" stop-color="#d96b9f"/></linearGradient></defs><rect width="640" height="420" rx="28" fill="url(#p)"/><circle cx="492" cy="92" r="58" fill="#ffe4ec" opacity=".45"/><g fill="none" stroke="#fff0f6" stroke-width="3" opacity=".75"><path d="M98 311c22-91 58-135 108-133 48 2 80 51 88 133"/><path d="M119 281c33-62 76-88 129-88"/></g><g fill="#fff1f6"><circle cx="95" cy="82" r="5"/><circle cx="147" cy="120" r="3"/><circle cx="532" cy="168" r="4"/></g><g transform="translate(255 106)"><path fill="#242039" d="M75 0c-46 4-67 42-64 92l7 129h112l7-129C140 43 119 4 75 0z"/><path fill="#e2c9cf" d="M50 62c0-31 11-48 27-48 18 0 29 17 29 48v39c0 27-11 42-29 42-17 0-27-15-27-42z"/><path fill="#34214e" d="M44 68c-5-43 10-68 34-68 31 0 48 27 43 67-18-18-31-28-48-43-8 18-17 31-29 44z"/><path fill="#e7bfd5" d="M27 205c18-25 33-36 48-36s31 11 49 36l29 44H0z"/><path fill="#c993d0" d="M51 202 13 247h58l14-43zM101 202l38 45H81l-17-43z"/></g><g fill="#ffd2e5"><path d="M480 250c22-30 48-24 46 0-2 20-28 29-46 0z"/><path d="M528 250c-22-30-48-24-46 0 2 20 28 29 46 0z"/><ellipse cx="504" cy="250" rx="6" ry="24" fill="#f6a4c6"/></g></svg>