<svg xmlns="http://www.w3.org/2000/svg" viewBox="0 0 640 420" role="img" aria-label="별자리 아래 하늘을 바라보는 인물 일러스트"><defs><linearGradient id="s" x1="0" y1="0" x2="1" y2="1"><stop stop-color="#192d66"/><stop offset="1" stop-color="#5d6fc0"/></linearGradient></defs><rect width="640" height="420" rx="28" fill="url(#s)"/><g fill="#fff0bd"><circle cx="95" cy="78" r="4"/><circle cx="151" cy="132" r="3"/><circle cx="238" cy="65" r="4"/><circle cx="315" cy="112" r="3"/><circle cx="425" cy="72" r="4"/><circle cx="522" cy="145" r="3"/><circle cx="560" cy="72" r="3"/></g><g stroke="#e5d8ff" stroke-width="2" opacity=".8"><path d="M95 78 151 132 238 65 315 112 425 72 522 145" fill="none"/><path d="M238 65 315 112M425 72 522 145"/></g><circle cx="452" cy="113" r="45" fill="#f9edcf" opacity=".95"/><path fill="#1a1c3c" d="M0 420c90-89 174-88 258 0 75-84 166-84 254 0 45-52 88-59 128-29v29z"/><g transform="translate(230 185)"><path fill="#202040" d="M74 0c-42 3-65 40-63 92l6 120h114l6-120C139 39 114 3 74 0z"/><path fill="#d8c4c7" d="M50 60c0-29 11-45 27-45s28 16 28 45v38c0 25-11 39-28 39S50 123 50 98z"/><path fill="#2b2146" d="M43 69c-3-46 12-70 36-70 28 0 47 24 43 67-18-18-33-26-48-40-8 19-18 31-31 43z"/><path fill="#d7c5df" d="M28 195c17-24 32-34 46-34s30 10 48 34l29 38H0z"/><path fill="#b79ce3" d="M49 190 12 233l56 5 16-42zM103 190l37 43-56 5-16-42z"/></g></svg>