<svg xmlns="http://www.w3.org/2000/svg" viewBox="0 0 800 640" role="img" aria-label="활동적인 스트레스 해소를 표현한 일러스트">
<defs>
  <linearGradient id="sky" x1="0" y1="0" x2="1" y2="1"><stop stop-color="#6f3fe0"/><stop offset="0.48" stop-color="#38227f"/><stop offset="1" stop-color="#111746"/></linearGradient>
  <linearGradient id="sun" x1="0" y1="0" x2="1" y2="1"><stop stop-color="#fff4d8"/><stop offset="1" stop-color="#ffc96f"/></linearGradient>
  <linearGradient id="coat" x1="0" y1="0" x2="1" y2="1"><stop stop-color="#d8c4ff"/><stop offset="1" stop-color="#8559d7"/></linearGradient>
  <linearGradient id="shirt" x1="0" y1="0" x2="1" y2="1"><stop stop-color="#fff4fa"/><stop offset="1" stop-color="#e9d7ff"/></linearGradient>
  <linearGradient id="skin" x1="0" y1="0" x2="1" y2="1"><stop stop-color="#ffd8ca"/><stop offset="1" stop-color="#f0a99f"/></linearGradient>
  <linearGradient id="ground" x1="0" y1="0" x2="0" y2="1"><stop stop-color="#252061"/><stop offset="1" stop-color="#0d123e"/></linearGradient>
  <filter id="blur"><feGaussianBlur stdDeviation="24"/></filter>
</defs>
<rect width="800" height="640" rx="42" fill="url(#sky)"/>
<circle cx="625" cy="128" r="116" fill="#d9c9ff" opacity=".14" filter="url(#blur)"/>
<circle cx="625" cy="128" r="82" fill="url(#sun)" opacity=".96"/>
<circle cx="625" cy="128" r="101" fill="none" stroke="#f5eaff" stroke-opacity=".28" stroke-width="2"/>

<!-- 멀리 보이는 도시와 공원 -->
<path d="M0 405 L0 350 L58 350 L58 325 L91 325 L91 360 L125 360 L125 310 L165 310 L165 350 L202 350 L202 332 L245 332 L245 372 L282 372 L282 338 L323 338 L323 366 L360 366 L360 315 L399 315 L399 354 L437 354 L437 330 L479 330 L479 368 L516 368 L516 300 L558 300 L558 350 L600 350 L600 320 L645 320 L645 365 L689 365 L689 340 L731 340 L731 360 L800 360 L800 430 Z" fill="#17194d" opacity=".72"/>
<path d="M0 430 Q155 382 320 420 T800 402 L800 640 L0 640Z" fill="url(#ground)"/>
<path d="M0 474 Q175 430 340 468 T800 450" fill="none" stroke="#5144a4" stroke-width="7" opacity=".55"/>
<path d="M0 530 Q160 488 330 520 T800 510" fill="none" stroke="#332c7c" stroke-width="16" opacity=".8"/>

<!-- 나무 -->
<path d="M91 451 L105 315 L120 451Z" fill="#242052"/>
<circle cx="105" cy="298" r="47" fill="#4f3d9b"/><circle cx="73" cy="321" r="32" fill="#5945a6"/><circle cx="139" cy="323" r="34" fill="#5c46ab"/>
<path d="M710 453 L721 330 L735 453Z" fill="#211d4f"/>
<circle cx="722" cy="310" r="46" fill="#4a3b91"/><circle cx="691" cy="330" r="31" fill="#5744a0"/><circle cx="754" cy="330" r="34" fill="#5943a4"/>

<!-- 인물 그림자 -->
<ellipse cx="414" cy="565" rx="205" ry="30" fill="#080c31" opacity=".55"/>

<!-- 다리 -->
<path d="M400 443 C405 482 407 515 391 548 L345 575 L366 589 L427 559 C446 532 455 497 456 456Z" fill="#f1a99f"/>
<path d="M448 447 C462 480 487 510 523 535 L569 548 L565 568 L505 556 C459 539 428 508 414 470Z" fill="#ffd0c1"/>
<!-- 운동화 -->
<path d="M337 568 Q354 558 374 570 L394 585 Q397 597 382 600 L330 595 Q319 586 337 568Z" fill="#f6f2ff"/>
<path d="M549 544 Q567 540 583 551 L600 563 Q601 575 587 579 L546 572 Q537 558 549 544Z" fill="#e7ddff"/>

<!-- 몸통 -->
<path d="M335 276 Q390 247 446 282 L474 424 Q449 462 394 460 Q346 455 320 421Z" fill="url(#coat)"/>
<path d="M363 301 Q401 285 432 303 L445 404 Q405 423 365 405Z" fill="url(#shirt)"/>
<path d="M355 399 Q405 417 449 397" fill="none" stroke="#f4e8ff" stroke-width="10" opacity=".65"/>

<!-- 왼팔을 크게 뻗은 자세 -->
<path d="M344 300 Q305 285 267 249 L215 194 Q207 181 218 171 Q230 164 241 176 L298 228 Q326 247 364 259Z" fill="url(#skin)"/>
<path d="M218 178 Q204 160 211 143 L225 115 Q231 105 242 111 Q251 117 246 128 L238 148 L256 132 Q266 125 274 133 Q281 141 272 150 L248 174Z" fill="url(#skin)"/>

<!-- 오른팔을 뒤로 자연스럽게 -->
<path d="M444 304 Q484 320 518 351 L552 391 Q559 402 550 412 Q540 421 529 412 L493 378 Q466 361 431 349Z" fill="url(#skin)"/>
<path d="M548 390 Q565 397 577 410 L594 431 Q600 442 590 449 Q581 455 572 446 L558 430 L562 449 Q562 461 551 463 Q540 463 539 451 L537 425Z" fill="url(#skin)"/>

<!-- 목과 얼굴 -->
<path d="M371 261 L369 291 Q395 310 418 287 L416 253Z" fill="url(#skin)"/>
<ellipse cx="395" cy="222" rx="65" ry="78" fill="url(#skin)"/>
<!-- 머리카락 -->
<path d="M331 222 Q319 145 379 122 Q445 99 476 158 Q492 188 474 244 Q460 213 444 197 Q420 176 386 178 Q354 181 331 222Z" fill="#292052"/>
<path d="M343 187 Q369 140 418 145 Q454 149 470 177 Q425 151 382 168 Q357 178 343 205Z" fill="#48327a"/>
<path d="M339 207 Q329 260 361 285 Q336 270 329 240Z" fill="#33245f"/>
<!-- 얼굴 -->
<path d="M370 225 Q380 217 390 225 M414 225 Q424 217 434 225" fill="none" stroke="#4c345f" stroke-width="5" stroke-linecap="round"/>
<path d="M393 247 Q405 256 417 247" fill="none" stroke="#ad5f78" stroke-width="5" stroke-linecap="round"/>
<circle cx="365" cy="246" r="11" fill="#ed9ca7" opacity=".26"/><circle cx="441" cy="246" r="11" fill="#ed9ca7" opacity=".26"/>

<!-- 작은 빛과 바람의 흐름 -->
<path d="M160 205 Q205 181 248 203" fill="none" stroke="#e7ddff" stroke-width="4" stroke-linecap="round" opacity=".5"/>
<path d="M555 235 Q602 211 651 228" fill="none" stroke="#e7ddff" stroke-width="4" stroke-linecap="round" opacity=".42"/>
<circle cx="172" cy="255" r="4" fill="#fff" opacity=".72"/><circle cx="674" cy="191" r="5" fill="#fff" opacity=".55"/><circle cx="611" cy="385" r="4" fill="#fff" opacity=".5"/>
</svg>